<svg width="100" height="22" viewBox="0 0 100 22" fill="none" xmlns="http://www.w3.org/2000/svg">
<path d="M5.26316 5.74988H0V10.9999H5.26316V5.74988Z" fill="#CC3358"/>
<path d="M5.26316 16.2499H0V21.4999H5.26316V16.2499Z" fill="#CC3358"/>
<path d="M10.5263 10.9999H5.26318V16.2499H10.5263V10.9999Z" fill="#CC3358"/>
<path d="M30.7018 14.6212V18.837L27.9973 21.5H18.366L15.7896 18.9641L18.5921 16.2058L20.4916 18.0765H25.4197L26.1289 17.3784V15.8891L25.5811 15.3499L18.7892 14.9116L16.3741 12.5335V8.41299L19.0798 5.75H27.9694L30.419 8.16094L27.6165 10.9193L25.845 9.17572H21.6585L20.9492 9.8727V11.2678L21.497 11.8069L28.289 12.2453L30.7018 14.6212Z" fill="#F3F3F6"/>
<path d="M38.0033 9.73475V16.6226L39.2251 17.9199H42.1052V21.5H36.869L33.8723 18.3182V9.73475H30.7017V6.15253H34.1056L34.7452 0.5H38.0033V6.15253H42.1052V9.73475H38.0033Z" fill="#F3F3F6"/>
<path d="M57.8945 8.60129V21.5H54.0497L53.959 18.8372L51.3959 21.5H46.4225L43.8594 18.8372V14.7827L46.1472 12.4059L53.5624 11.8986V10.1869L52.5857 9.1722H48.6829L46.7917 11.1381L44.1368 8.37993L46.6683 5.75H55.1509L57.8945 8.60129ZM51.4265 18.08L53.5624 15.861V14.8156L48.8633 15.1323L48.1914 15.8303V17.3195L48.9245 18.0811L51.4265 18.08Z" fill="#F3F3F6"/>
<path d="M73.684 8.60129V21.5H69.8393L69.7486 18.8372L67.1854 21.5H62.2121L59.6489 18.8372V14.7827L61.9389 12.4048L69.3541 11.8975V10.1869L68.3731 9.1722H64.4704L62.5791 11.1381L59.9242 8.37993L62.4557 5.75H70.9384L73.684 8.60129ZM67.2129 18.08L69.3488 15.861V14.8156L64.6497 15.1323L63.9778 15.8303V17.3195L64.7109 18.0811L67.2129 18.08Z" fill="#F3F3F6"/>
<path d="M85.965 5.75V9.96526H82.1284L80.5055 11.7086V21.5H76.3159V5.75H80.0342L80.1515 8.69751L82.8966 5.75H85.965Z" fill="#F3F3F6"/>
<path d="M95.5826 9.73475V16.6226L96.8984 17.9199H99.9999V21.5H94.361L91.1338 18.3182V9.73475H87.7192V6.15253H91.385L92.0738 0.5H95.5826V6.15253H99.9999V9.73475H95.5826Z" fill="#F3F3F6"/>
</svg>
